<svg width="91" height="91" viewBox="0 0 91 91" fill="none" xmlns="http://www.w3.org/2000/svg">
<path fill-rule="evenodd" clip-rule="evenodd" d="M45.5 91C70.629 91 91 70.629 91 45.5C91 20.371 70.629 0 45.5 0C20.371 0 0 20.371 0 45.5C0 70.629 20.371 91 45.5 91ZM43 15H47V19.0806C51.0385 19.3885 54.5234 20.5792 57.4545 22.6526C60.9212 25.0628 62.8485 28.79 63.2364 33.834H54.5455C54.1576 31.2499 53.0424 29.349 51.2 28.1315C49.932 27.2765 48.532 26.7157 47 26.4491V41.3043C49.3341 42.0806 51.0614 42.684 52.1818 43.1146C53.3455 43.537 54.8485 44.2203 56.6909 45.1646C58.5333 46.1088 59.8667 47.053 60.6909 47.9972C61.5394 48.9165 62.303 50.1714 62.9818 51.7616C63.6606 53.327 64 55.1036 64 57.0914C64 61.8125 62.3152 65.4775 58.9455 68.0865C55.8339 70.5131 51.8521 71.8112 47 71.9809V76H43V71.864C38.9086 71.4683 35.3147 70.2091 32.2182 68.0865C28.4364 65.4527 26.3636 61.564 26 56.4205H34.8727C35.2121 59.3277 36.4727 61.4149 38.6545 62.6821C40.0237 63.4686 41.4721 64.011 43 64.3094V48.5598C37.7842 46.8272 33.8508 44.9004 31.2 42.7792C28.4364 40.5677 27.0545 37.3997 27.0545 33.275C27.0545 28.7527 28.6909 25.2492 31.9636 22.7644C34.8503 20.5509 38.5291 19.3135 43 19.0524V15ZM38.5455 27.9079C39.8801 27.1053 41.3649 26.5974 43 26.3839V40.0144C42.372 39.7713 41.5417 39.4381 40.5091 39.0148C39.3212 38.493 38.4606 37.9836 37.9273 37.4866C37.4182 36.9648 36.9455 36.3188 36.5091 35.5485C36.0727 34.7534 35.8545 33.8713 35.8545 32.9023C35.8545 30.666 36.7515 29.0012 38.5455 27.9079ZM47 64.5446V49.8669C47.46 50.0267 47.8661 50.1737 48.2182 50.308C49.2606 50.7056 50.4121 51.2646 51.6727 51.9852C52.9333 52.7058 53.8303 53.5382 54.3636 54.4824C54.9212 55.4266 55.2 56.5075 55.2 57.725C55.2 60.011 54.2788 61.7255 52.4364 62.8685C50.8697 63.8404 49.0575 64.3991 47 64.5446Z" fill="#00A944"/>
</svg>
