<svg width="91" height="91" viewBox="0 0 91 91" fill="none" xmlns="http://www.w3.org/2000/svg">
<path fill-rule="evenodd" clip-rule="evenodd" d="M54.2806 0H36.7192V15.2401C34.4702 15.8916 32.3248 16.787 30.3136 17.8958L19.5354 7.11763L7.11758 19.5354L17.8958 30.3136C16.7869 32.3249 15.8915 34.4704 15.24 36.7195H0V54.2809H15.2401C15.8916 56.5298 16.7869 58.675 17.8957 60.6861L7.11764 71.4641L19.5354 83.8819L30.3133 73.104C32.3246 74.2129 34.4701 75.1084 36.7192 75.7599V91H54.2806V75.76C56.5297 75.1085 58.6751 74.2131 60.6864 73.1042L71.4643 83.8821L83.8821 71.4644L73.1042 60.6864C74.213 58.6752 75.1084 56.5299 75.7599 54.2809H91V36.7195H75.76C75.1085 34.4703 74.213 32.3247 73.104 30.3133L83.8821 19.5352L71.4644 7.11743L60.6861 17.8957C58.6749 16.7869 56.5296 15.8915 54.2806 15.24V0ZM45.5 61C54.0604 61 61 54.0604 61 45.5C61 36.9396 54.0604 30 45.5 30C36.9396 30 30 36.9396 30 45.5C30 54.0604 36.9396 61 45.5 61Z" fill="#00A944"/>
</svg>
